<?xml version="1.0" encoding="UTF-8"?>
<!DOCTYPE svg PUBLIC "-//W3C//DTD SVG 1.1//EN" "http://www.w3.org/Graphics/SVG/1.1/DTD/svg11.dtd">
<svg xmlns="http://www.w3.org/2000/svg" version="1.1" width="100px" height="100px" style="shape-rendering:geometricPrecision; text-rendering:geometricPrecision; image-rendering:optimizeQuality; fill-rule:evenodd; clip-rule:evenodd" xmlns:xlink="http://www.w3.org/1999/xlink">
<g><path style="opacity:0.838" fill="#000000" d="M 49.5,-0.5 C 52.1667,-0.5 54.8333,-0.5 57.5,-0.5C 59.5069,0.518616 60.8402,2.18528 61.5,4.5C 64.8967,5.17188 68.2301,6.00522 71.5,7C 72.4601,8.41941 73.2935,9.91941 74,11.5C 74.3333,25.1667 74.6667,38.8333 75,52.5C 77.6897,54.1935 79.6897,56.5268 81,59.5C 81.8815,70.207 80.2148,80.5404 76,90.5C 74.225,95.112 71.0583,98.112 66.5,99.5C 54.1667,99.5 41.8333,99.5 29.5,99.5C 23.8522,97.3502 20.0188,93.3502 18,87.5C 17.3333,75.1667 17.3333,62.8333 18,50.5C 18.4728,48.221 19.4728,46.221 21,44.5C 21.3333,36.8333 21.6667,29.1667 22,21.5C 22.5,19.6667 23.6667,18.5 25.5,18C 28.146,17.5026 30.8127,17.3359 33.5,17.5C 33.0057,9.05494 37.0057,5.72161 45.5,7.5C 45.2776,3.94407 46.6109,1.2774 49.5,-0.5 Z M 51.5,4.5 C 54.2385,3.96478 56.0718,4.96478 57,7.5C 57.4998,18.1615 57.6665,28.8281 57.5,39.5C 54.8333,39.5 52.1667,39.5 49.5,39.5C 49.3335,28.8281 49.5002,18.1615 50,7.5C 50.5133,6.47344 51.0133,5.47344 51.5,4.5 Z M 63.5,10.5 C 65.7224,10.178 67.5557,10.8446 69,12.5C 69.4999,25.1623 69.6666,37.8289 69.5,50.5C 61.6711,49.5422 53.8377,48.5422 46,47.5C 44.2358,47.5445 42.5691,47.8778 41,48.5C 37.3513,59.3707 41.1846,66.0374 52.5,68.5C 50.517,70.9837 48.3504,73.3171 46,75.5C 43.9937,78.5358 43.1604,81.8691 43.5,85.5C 44.8734,85.6567 46.2068,85.49 47.5,85C 48.5218,82.4552 49.6884,79.9552 51,77.5C 54.9397,74.1202 59.1063,71.1202 63.5,68.5C 63.0233,67.5224 62.3567,66.6891 61.5,66C 56.4203,64.1957 51.4203,62.1957 46.5,60C 44.5356,57.8325 44.2022,55.4992 45.5,53C 53.8584,53.4312 62.1917,54.4312 70.5,56C 72.286,56.7845 73.786,57.9512 75,59.5C 76.5204,63.3749 76.8538,67.3749 76,71.5C 74.4886,77.2121 72.822,82.8788 71,88.5C 68.8744,92.816 65.3744,94.9827 60.5,95C 52.1667,95.6667 43.8333,95.6667 35.5,95C 29.725,94.5622 25.5583,91.7288 23,86.5C 20.9709,74.3051 21.1376,62.1384 23.5,50C 26.0927,47.0145 29.426,45.3479 33.5,45C 44.1801,44.6462 54.8467,44.1462 65.5,43.5C 65.5,42.1667 65.5,40.8333 65.5,39.5C 64.5,39.5 63.5,39.5 62.5,39.5C 62.1935,29.7504 62.5268,20.0838 63.5,10.5 Z M 39.5,12.5 C 42.2385,11.9648 44.0718,12.9648 45,15.5C 45.4997,23.4931 45.6664,31.4931 45.5,39.5C 42.8333,39.5 40.1667,39.5 37.5,39.5C 37.3336,31.4931 37.5003,23.4931 38,15.5C 38.5133,14.4734 39.0133,13.4734 39.5,12.5 Z M 27.5,22.5 C 30.2385,21.9648 32.0718,22.9648 33,25.5C 33.4993,30.4889 33.6659,35.4889 33.5,40.5C 31.0799,40.2924 28.7466,40.6258 26.5,41.5C 24.9703,34.9858 25.3037,28.6525 27.5,22.5 Z"/></g>
</svg>
