<?xml version="1.0" encoding="UTF-8"?>
<!DOCTYPE svg PUBLIC "-//W3C//DTD SVG 1.1//EN" "http://www.w3.org/Graphics/SVG/1.1/DTD/svg11.dtd">
<svg xmlns="http://www.w3.org/2000/svg" version="1.1" width="100px" height="100px" style="shape-rendering:geometricPrecision; text-rendering:geometricPrecision; image-rendering:optimizeQuality; fill-rule:evenodd; clip-rule:evenodd" xmlns:xlink="http://www.w3.org/1999/xlink">
<g><path style="opacity:0.86" fill="#000000" d="M 68.5,99.5 C 56.1667,99.5 43.8333,99.5 31.5,99.5C 25.8522,97.3502 22.0188,93.3502 20,87.5C 19.3333,75.1667 19.3333,62.8333 20,50.5C 22.4677,45.5559 24.3011,40.3892 25.5,35C 29.0985,33.9861 32.7652,33.1527 36.5,32.5C 37.09,31.2011 38.09,30.3678 39.5,30C 42.146,29.5026 44.8127,29.3359 47.5,29.5C 47.317,27.0637 47.9837,24.897 49.5,23C 52.6883,21.6842 56.0217,21.1842 59.5,21.5C 59.0899,15.3792 59.5899,9.37924 61,3.5C 64.2559,1.57149 67.7559,1.07149 71.5,2C 73.3333,2.5 74.5,3.66667 75,5.5C 75.3333,23.8333 75.6667,42.1667 76,60.5C 83.5084,66.6566 85.5084,74.3233 82,83.5C 79.5554,90.8154 75.0554,96.1487 68.5,99.5 Z M 65.5,6.5 C 68.2385,5.96478 70.0718,6.96478 71,9.5C 71.6667,24.1667 71.6667,38.8333 71,53.5C 69.4928,50.5736 67.1595,48.5736 64,47.5C 63.3333,34.8333 63.3333,22.1667 64,9.5C 64.5133,8.47344 65.0133,7.47344 65.5,6.5 Z M 53.5,26.5 C 56.2385,25.9648 58.0718,26.9648 59,29.5C 59.6667,34.8333 59.6667,40.1667 59,45.5C 56.6667,49.5 54.3333,49.5 52,45.5C 50.9699,38.9593 51.4699,32.6259 53.5,26.5 Z M 41.5,34.5 C 44.2385,33.9648 46.0718,34.9648 47,37.5C 47.6667,44.1667 47.6667,50.8333 47,57.5C 44.6667,61.5 42.3333,61.5 40,57.5C 39.3333,50.8333 39.3333,44.1667 40,37.5C 40.5133,36.4734 41.0133,35.4734 41.5,34.5 Z M 29.5,38.5 C 32.2385,37.9648 34.0718,38.9648 35,41.5C 35.6667,46.1667 35.6667,50.8333 35,55.5C 32.6667,59.5 30.3333,59.5 28,55.5C 26.9901,49.6202 27.4901,43.9536 29.5,38.5 Z M 60.5,52.5 C 62.9032,52.393 64.7365,53.393 66,55.5C 70,60.8333 74,66.1667 78,71.5C 78.3925,79.8902 75.5592,87.0569 69.5,93C 67.2852,94.0438 64.9519,94.7105 62.5,95C 54.1667,95.6667 45.8333,95.6667 37.5,95C 29.6667,93.8333 25.1667,89.3333 24,81.5C 23.3333,74.1667 23.3333,66.8333 24,59.5C 24.5,61.3333 25.6667,62.5 27.5,63C 30.4294,63.7772 33.2628,63.6105 36,62.5C 46.4803,68.5938 51.8136,65.5938 52,53.5C 52.3003,59.4681 54.8003,64.3014 59.5,68C 50.514,70.4764 45.8473,76.3098 45.5,85.5C 46.8734,85.6567 48.2068,85.49 49.5,85C 52.0153,77.8191 57.0153,73.4858 64.5,72C 65.3567,71.3109 66.0233,70.4776 66.5,69.5C 63.9124,65.3244 61.0791,61.3244 58,57.5C 57.2938,55.0448 58.1271,53.3781 60.5,52.5 Z"/></g>
</svg>
