<?xml version="1.0" encoding="UTF-8"?>
<!DOCTYPE svg PUBLIC "-//W3C//DTD SVG 1.1//EN" "http://www.w3.org/Graphics/SVG/1.1/DTD/svg11.dtd">
<svg xmlns="http://www.w3.org/2000/svg" version="1.1" width="100px" height="100px" style="shape-rendering:geometricPrecision; text-rendering:geometricPrecision; image-rendering:optimizeQuality; fill-rule:evenodd; clip-rule:evenodd" xmlns:xlink="http://www.w3.org/1999/xlink">
<g><path style="opacity:0.825" fill="#000000" d="M 47.5,-0.5 C 50.1667,-0.5 52.8333,-0.5 55.5,-0.5C 57.1436,0.316435 58.3103,1.64977 59,3.5C 60.0548,10.4869 61.0548,17.4869 62,24.5C 62.3333,18.8333 62.6667,13.1667 63,7.5C 63.2463,3.99526 64.7463,1.32859 67.5,-0.5C 70.1667,-0.5 72.8333,-0.5 75.5,-0.5C 77.1436,0.316435 78.3103,1.64977 79,3.5C 79.5708,18.0377 79.0708,32.5377 77.5,47C 77.6667,47.8333 77.8333,48.6667 78,49.5C 85.1493,53.8872 87.4826,60.2206 85,68.5C 82.8684,75.8948 80.5351,83.2281 78,90.5C 75.5319,94.8013 72.0319,97.8013 67.5,99.5C 54.8333,99.5 42.1667,99.5 29.5,99.5C 23.8522,97.3502 20.0188,93.3502 18,87.5C 17.3333,75.1667 17.3333,62.8333 18,50.5C 18.4728,48.221 19.4728,46.221 21,44.5C 21.0384,40.4366 21.8717,36.6033 23.5,33C 27.0985,31.9861 30.7652,31.1527 34.5,30.5C 35.09,29.2011 36.09,28.3678 37.5,28C 39.8098,27.5034 42.1432,27.3367 44.5,27.5C 43.5101,19.5228 43.3435,11.5228 44,3.5C 44.6897,1.64977 45.8564,0.316435 47.5,-0.5 Z M 49.5,4.5 C 52.2385,3.96478 54.0718,4.96478 55,7.5C 55.7067,17.5218 56.5401,27.5218 57.5,37.5C 54.8806,37.2317 52.3806,37.565 50,38.5C 48.8258,27.1044 48.6591,15.7711 49.5,4.5 Z M 69.5,4.5 C 71.1439,4.28649 72.6439,4.61983 74,5.5C 74.3664,18.5098 74.033,31.5098 73,44.5C 72.586,44.9574 72.086,45.2907 71.5,45.5C 69.3703,44.5328 67.3703,43.3662 65.5,42C 66.6431,30.58 67.4765,19.08 68,7.5C 68.5133,6.47344 69.0133,5.47344 69.5,4.5 Z M 39.5,32.5 C 42.2385,31.9648 44.0718,32.9648 45,35.5C 45.6667,42.8333 45.6667,50.1667 45,57.5C 42.6667,61.5 40.3333,61.5 38,57.5C 37.3333,50.1667 37.3333,42.8333 38,35.5C 38.5133,34.4734 39.0133,33.4734 39.5,32.5 Z M 27.5,36.5 C 30.2385,35.9648 32.0718,36.9648 33,39.5C 33.6667,44.1667 33.6667,48.8333 33,53.5C 30.6667,57.5 28.3333,57.5 26,53.5C 24.9901,47.6202 25.4901,41.9536 27.5,36.5 Z M 52.5,42.5 C 54.1992,42.3398 55.8659,42.5065 57.5,43C 65.2751,47.7764 72.7751,52.943 80,58.5C 80.6667,61.5 80.6667,64.5 80,67.5C 77.7982,73.7721 75.7982,80.1054 74,86.5C 71.0892,91.7129 66.5892,94.5462 60.5,95C 52.1667,95.6667 43.8333,95.6667 35.5,95C 29.725,94.5622 25.5583,91.7288 23,86.5C 21.3199,77.534 21.1532,68.534 22.5,59.5C 26.3609,60.933 30.3609,61.933 34.5,62.5C 35.09,63.7989 36.09,64.6322 37.5,65C 46.4057,67.2099 50.7391,63.7099 50.5,54.5C 53.5332,56.6976 56.6999,58.6976 60,60.5C 60.5074,61.9961 60.0074,63.1627 58.5,64C 48.5956,67.7388 43.5956,74.9054 43.5,85.5C 45.1439,85.7135 46.6439,85.3802 48,84.5C 49.2804,75.8858 54.1137,70.3858 62.5,68C 64.2105,65.5438 65.5438,62.8771 66.5,60C 65.8333,59 65.1667,58 64.5,57C 59.9003,54.785 55.7336,51.9517 52,48.5C 51.3224,46.4024 51.4891,44.4024 52.5,42.5 Z"/></g>
</svg>
