<?xml version="1.0" encoding="UTF-8"?>
<!DOCTYPE svg PUBLIC "-//W3C//DTD SVG 1.1//EN" "http://www.w3.org/Graphics/SVG/1.1/DTD/svg11.dtd">
<svg xmlns="http://www.w3.org/2000/svg" version="1.1" width="100px" height="100px" style="shape-rendering:geometricPrecision; text-rendering:geometricPrecision; image-rendering:optimizeQuality; fill-rule:evenodd; clip-rule:evenodd" xmlns:xlink="http://www.w3.org/1999/xlink">
<g><path style="opacity:0.84" fill="#000000" d="M 47.5,3.5 C 50.1873,3.33591 52.854,3.50258 55.5,4C 58.9034,6.76766 62.9034,8.10099 67.5,8C 69.3333,8.5 70.5,9.66667 71,11.5C 74.5321,8.8258 78.3654,8.15913 82.5,9.5C 83.666,22.4872 83.8327,35.4872 83,48.5C 80.2203,56.0612 76.887,63.3945 73,70.5C 70.6667,72.1667 68.3333,73.8333 66,75.5C 65.5004,82.1583 65.3337,88.825 65.5,95.5C 64.1667,95.5 62.8333,95.5 61.5,95.5C 61.3336,87.4931 61.5003,79.4931 62,71.5C 64.6855,70.3241 67.0188,68.6575 69,66.5C 72.273,60.2878 75.273,53.9544 78,47.5C 78.4998,36.505 78.6665,25.505 78.5,14.5C 74.6044,14.5603 72.4377,16.5603 72,20.5C 71.8306,26.8594 71.3306,33.1928 70.5,39.5C 56.2376,41.4306 47.9043,49.4306 45.5,63.5C 43.0516,63.9899 41.385,63.1566 40.5,61C 41.0623,54.2994 43.7289,48.6327 48.5,44C 47.737,43.0565 46.737,42.5565 45.5,42.5C 42.2025,43.4959 38.8692,43.6626 35.5,43C 34.09,42.6322 33.09,41.7989 32.5,40.5C 28.3609,39.933 24.3609,38.933 20.5,37.5C 19.1532,46.534 19.3199,55.534 21,64.5C 22.6667,66.8333 24.3333,69.1667 26,71.5C 26.736,79.5353 26.5693,87.5353 25.5,95.5C 24.1667,95.5 22.8333,95.5 21.5,95.5C 21.6664,87.8261 21.4997,80.1594 21,72.5C 18.5971,70.695 16.9305,68.3616 16,65.5C 15.3333,53.5 15.3333,41.5 16,29.5C 18.775,24.5435 20.1084,19.2102 20,13.5C 20.5,11.6667 21.6667,10.5 23.5,10C 28.0966,10.101 32.0966,8.76766 35.5,6C 38.4294,5.22284 41.2628,5.38951 44,6.5C 45.1451,5.36362 46.3117,4.36362 47.5,3.5 Z M 49.5,8.5 C 52.2385,7.96478 54.0718,8.96478 55,11.5C 55.6667,19.5 55.6667,27.5 55,35.5C 52.6667,39.5 50.3333,39.5 48,35.5C 47.3333,27.5 47.3333,19.5 48,11.5C 48.5133,10.4734 49.0133,9.47344 49.5,8.5 Z M 37.5,10.5 C 40.2385,9.96478 42.0718,10.9648 43,13.5C 43.6667,20.8333 43.6667,28.1667 43,35.5C 40.6667,39.5 38.3333,39.5 36,35.5C 35.3333,28.1667 35.3333,20.8333 36,13.5C 36.5133,12.4734 37.0133,11.4734 37.5,10.5 Z M 61.5,12.5 C 65.5308,12.0335 67.5308,13.8668 67.5,18C 66.8202,22.477 66.3202,26.977 66,31.5C 63.2242,33.1397 61.2242,32.473 60,29.5C 58.9901,23.6202 59.4901,17.9536 61.5,12.5 Z M 25.5,14.5 C 28.2385,13.9648 30.0718,14.9648 31,17.5C 31.6667,22.1667 31.6667,26.8333 31,31.5C 28.6667,35.5 26.3333,35.5 24,31.5C 22.9901,25.6202 23.4901,19.9536 25.5,14.5 Z"/></g>
</svg>
